# xmcd
#
# Track frame offsets:
#	150
#	24580
#	47537
#	63917
#	81250
#	96937
#	112472
#	129735
#	154265
#	171817
#	189437
#	204605
#	217137
#	233610
#	249162
#	273637
#	291387
#	316687
#
# Disc length: 4640
#
# Revision: 4
# Processed by: cddbd v1.5.1PL0 Copyright (c) Steve Scherf et al.
# Submitted via: CDmax 1.8
# Normalized: r3:DSETVAR1
#
DISCID=0b121e12
DTITLE=Various Artist - Uncut - Sounds Of The New West Vol 3
DYEAR=2002
DGENRE=Country
TTITLE0=Lift To Experience - To Guard And To Guide You
TTITLE1=Jolene - Break
TTITLE2=Ryan Adams - Rescue Blues
TTITLE3=Centro Matic - To Unleash The Horses Now
TTITLE4=Mary Gauthier - Our Lady Of The Shooting Stars
TTITLE5=Papa M - Beloved Woman
TTITLE6=M Ward - Archangel Tale
TTITLE7=Alejandro Escovedo - Wave
TTITLE8=Jay Farrar - Barstow
TTITLE9=Lucinda Williams - Blue
TTITLE10=Silver Jews - Horseleg Swastikas
TTITLE11=Handsome Family - No One Fell Asleep Alone
TTITLE12=Whiskeytown - What The Devil Wanted
TTITLE13=Hamell On Trial - Judy
TTITLE14=Kelly Joe Phelps - Tommy
TTITLE15=Josh Rouse - Miracle
TTITLE16=Jim White - Hey! You Going My Way???
TTITLE17=The Gourds - Gin and Juice
EXTD=Free with UNCUT magazine February 2002 ID3G: 2
EXTT0=
EXTT1=
EXTT2=
EXTT3=
EXTT4=
EXTT5=
EXTT6=
EXTT7=
EXTT8=
EXTT9=
EXTT10=
EXTT11=
EXTT12=
EXTT13=
EXTT14=
EXTT15=
EXTT16=
EXTT17=
PLAYORDER=
